<?xml version="1.0" encoding="UTF-8"?>
<svg id="Layer_1" data-name="Layer 1" xmlns="http://www.w3.org/2000/svg" viewBox="0 0 270.81 227">
  <defs>
    <style>
      .cls-1 {
        fill: #fff;
      }
    </style>
  </defs>
  <path class="cls-1" d="M62.61,143.17l-.22-22.81c-.05-5.27-3.14-9.22-7.98-9.38s-9.08,3.02-9.15,8.33l-.31,23.92h-10.18s.01-54.23.01-54.23l8.98-6.2.25,23.3c6.5-5.12,14.87-6.41,21.84-2.44,4.28,2.44,6.81,7.64,6.86,12.55l.26,27.05-10.36-.09Z"/>
  <path class="cls-1" d="M122.79,123.04c0,11.77-9.59,21.32-21.41,21.32s-21.41-9.55-21.41-21.32,9.59-21.32,21.41-21.32,21.41,9.55,21.41,21.32ZM108.59,131.78c3.82-5.36,3.63-12.51-.02-17.53-2.71-3.73-8.24-4.03-12.04-2.09-6.64,3.37-6.77,18.45.17,21.81,3.5,1.69,9.11,1.72,11.88-2.18Z"/>
  <g>
    <path class="cls-1" d="M179.7,118.36c0-4.71-3.13-7.61-6.99-7.69s-7.31,2.92-7.33,7.19l-.11,25.33h-10.15s-.08-25.27-.08-25.27c-.01-4.32-3.26-7.2-6.98-7.24s-7.26,2.87-7.28,7.17l-.1,25.34-10.28-.02.02-37.41,8.85-6.12.42,7.14c6.45-6.81,17.79-7.46,23.74,1.02,4.39-5.83,11.65-7.53,18.52-5.09,4.8,1.7,7.35,6.4,7.89,11.46l.12,29.03-10.26-.02-.02-24.82Z"/>
    <path class="cls-1" d="M212.2,144.59c-7.53.37-13.31-3.76-14.35-10.03-1.14-6.9,2.26-12.82,9.2-14.83,5.56-1.61,11.1-2.59,17.05-3.2-.3-3.94-3.08-5.64-6.57-5.75-4.04-.12-7.75,1.35-9.3,5.12l-9.26-3.18c4.06-11.65,18.7-14.04,29.08-8.6,3.85,2.02,6.02,6.62,6.05,10.82l.14,28.25h-8.98c.23-1.66.4-2.66-.57-4.29-3.13,3.85-7.21,5.43-12.49,5.69ZM210.24,135.92c3.56,1.49,7.34.45,10.13-1.71s4.09-5.85,3.36-9.44c-7.86,1.3-16.29,2.49-16.07,7.37.07,1.5.88,3.05,2.59,3.77Z"/>
  </g>
</svg>