<?xml version="1.0" encoding="UTF-8"?>
<svg id="Layer_1" data-name="Layer 1" xmlns="http://www.w3.org/2000/svg" viewBox="0 0 270.81 227">
  <defs>
    <style>
      .cls-1 {
        fill: #fff;
      }
    </style>
  </defs>
  <path class="cls-1" d="M152.64,123.4c-7.91-1.1-15.07-.59-23.18-.59l-8.05,19.83-6.11.48,7.9-19.83c-25.46,1.46-48.64,7.75-72.44,17.11,12.76-8.74,27.62-13.71,42.69-18.11l.15-11.91-16.57-25.24,5.97-.21,13.06,21.11,13.57-20.96,5.59.07-16.04,25.28c-.98,3.02-.15,7.06-.11,10.62,9.36-1.85,17.37-3.27,26.54-3.31l13.13-31.39.94-1.94c.25-.52,2.24-.74,2.52-.06l13.94,33.56c9.31.26,17.57,2.21,26.54,3.83l.02-32.22-13.93-.09c-.26-1.57-.27-3.26-.08-4.4h32.54s0,4.4,0,4.4l-13.36.08.04,33.52c13.66,4.74,26.84,8.72,39,17.3-21.67-8.54-43.73-14.88-68.1-16.72l7.37,19.33-5.76-.1-7.75-19.42ZM150.2,117.1l-9.32-22.89-9.26,22.98,18.58-.1Z"/>
  <path class="cls-1" d="M60.2,128.85c-1.69.6-3.49.52-5.62.26l-.04-21.57-24.15-.02-.04,21.58c-2.18.26-3.83.27-5.74-.14l.11-44.07c2.16.27,3.9.35,5.67.03l.03,18.08,23.89.24.27-18.32c1.7.31,3.47.22,5.62-.02v43.95Z"/>
  <path class="cls-1" d="M235.19,129.16l-5.79-.02v-39.65s-13.34-.07-13.34-.07v-4.4s32.78,0,32.78,0c-.24,1.64-.3,3.05-.09,4.43l-13.58.07.02,39.63Z"/>
</svg>