<?xml version="1.0" encoding="UTF-8"?>
<svg id="Layer_1" data-name="Layer 1" xmlns="http://www.w3.org/2000/svg" xmlns:xlink="http://www.w3.org/1999/xlink" viewBox="0 0 270.81 227">
  <defs>
    <style>
      .cls-1 {
        fill: url(#linear-gradient-2);
      }

      .cls-2 {
        fill: url(#linear-gradient);
      }

      .cls-3 {
        fill: #ee8c2f;
      }

      .cls-4 {
        fill: #2d211b;
      }

      .cls-5 {
        fill: #fff;
      }
    </style>
    <linearGradient id="linear-gradient" x1="-2531.55" y1="90.02" x2="-2386.6" y2="90.02" gradientTransform="translate(2594.479 194.1334) scale(1 -1)" gradientUnits="userSpaceOnUse">
      <stop offset="0" stop-color="#ffc20d"/>
      <stop offset="1" stop-color="#ee890b"/>
    </linearGradient>
    <linearGradient id="linear-gradient-2" x1="-2508.42" y1="93.1" x2="-2409.62" y2="93.1" gradientTransform="translate(2594.479 194.1334) scale(1 -1)" gradientUnits="userSpaceOnUse">
      <stop offset="0" stop-color="#ee890b"/>
      <stop offset="1" stop-color="#ffc20d"/>
    </linearGradient>
  </defs>
  <g>
    <ellipse class="cls-5" cx="135.4" cy="104.12" rx="72.48" ry="68.24"/>
    <path class="cls-2" d="M135.4,42.75c8.91,0,17.54,1.64,25.67,4.87,7.82,3.12,14.84,7.57,20.86,13.24,5.99,5.64,10.7,12.21,13.97,19.5,3.38,7.52,5.09,15.51,5.09,23.74s-1.71,16.22-5.09,23.74c-3.28,7.3-7.98,13.86-13.97,19.5-6.02,5.67-13.04,10.13-20.86,13.24-8.12,3.23-16.76,4.87-25.67,4.87s-17.54-1.64-25.67-4.87c-7.82-3.12-14.84-7.57-20.86-13.24-5.99-5.64-10.7-12.21-13.97-19.5-3.38-7.52-5.09-15.51-5.09-23.74s1.71-16.22,5.09-23.74c3.28-7.3,7.98-13.86,13.97-19.5,6.02-5.67,13.04-10.13,20.86-13.24,8.12-3.23,16.76-4.87,25.67-4.87M135.4,35.87c-40.03,0-72.48,30.55-72.48,68.24s32.45,68.24,72.48,68.24,72.48-30.55,72.48-68.24-32.45-68.24-72.48-68.24h0Z"/>
  </g>
  <g>
    <g>
      <path class="cls-4" d="M178.58,109.49c.28-1.38.78-2.53,1.27-3.6.3-.66.77-1.12,1.47-1.45,2.92-1.39,5.22-3.35,6.83-5.83,3.32-5.12,3.61-11.64.72-16.61-2.07-3.56-5.81-5.6-10.28-5.6-2.35,0-4.72.61-6.76,1.72,0,.01.01.02.02.03.41.8.83,1.63,1.14,2.65l.5,1.63-8.12.03h-.22c-.11,0-.22.01-.34.01-.57,0-1.31-.06-1.89-.48-.29-.21-.57-.42-.84-.63-.86-.65-1.68-1.25-2.59-1.75-2.16-1.16-4.49-1.74-6.93-1.74-3.5,0-7.06,1.2-10.26,3.46-1.99,1.4-3.76,3.1-5.73,5.48l-.82.99-.97-.83c-.68-.58-1.2-1.16-1.7-1.72-.3-.34-.59-.66-.9-.97-4.15-4.17-8.91-6.38-13.76-6.38-.89,0-1.81.08-2.71.22-2.48.41-4.85,1.56-7.67,3.74-.54.41-1.24.62-2.14.62-.36,0-.71-.03-1.01-.06-.22-.02-.42-.04-.6-.04h-1.8c-.38-.01-.76.01-1.14.03-.41.02-.84.05-1.28.05-.5,0-.95-.03-1.37-.1l-1.7-.25,1.96-4.04c-2.34-1.11-4.65-1.67-6.88-1.67s-4.53.62-6.56,1.84c-1.54.92-2.75,2.07-3.51,3.31-.87,1.43-1.44,2.81-1.74,4.22-.71,3.37-.34,6.94,1.08,10.32,1.29,3.07,3.55,5.68,6.53,7.56.25.16.57.29.9.43.57.23,1.21.5,1.76.98l.12.11.09.14c.81,1.2,1.15,2.56,1.48,3.86l.46,1.82-1.65-.03c-6.16-.09-11.61-4.34-14.39-7.96-1.55-2-2.73-4.36-3.71-7.42-1.14-3.54-1.36-7.96-.59-11.84.96-4.82,3.44-9.03,6.98-11.86,3.65-2.91,8.1-4.45,12.88-4.45,3.33,0,6.68.78,9.7,2.26.34.17.68.34,1.02.52.38.2.75.38,1.12.57,3.47-3.66,6.65-6.56,9.94-9.09.21-.16,5.07-3.88,6.93-3.88.12,0,.23.01.33.03.82.15,1,.73,1.42,2.11.09.28.21.7.34,1.09.12-.08.25-.16.37-.24.29-.19.6-.38.92-.57l4.79-2.67c3.55-1.97,13.21-6.16,17.73-6.79l1.58-.22-.44,4.69c-.1,1.03-.03,2,.21,2.99.18.74.46.96,1.2.96.84,0,1.96-.35,2.94-.67.89-.28,1.73-.55,2.45-.59l1.28-.08.06,1.28c.03.69.02,1.33,0,1.96v.24c-.04,1.76.74,3.26,2.18,4.21,2.65,1.75,5.22,3.62,7.84,5.71,3.66-2.53,7.9-3.81,12.6-3.81.35,0,.7,0,1.06.02,8.03.33,14.41,4.95,17.49,12.68,2.36,5.91,2.21,12.64-.4,18.47-3.12,6.96-10.1,12.06-16.98,12.41l-1.62.08.32-1.59-.02-.02Z"/>
      <path class="cls-5" d="M146.98,52.02l-.29,3.1c-.11,1.17-.03,2.29.24,3.41.36,1.47,1.29,1.93,2.43,1.93,1.83,0,4.17-1.18,5.47-1.26.03.74.02,1.4,0,2.12-.04,2.16.94,4.09,2.75,5.28,2.87,1.9,5.57,3.89,8.26,6.05.04.03.09.05.15.05.22,0,.54-.19.67-.28,3.57-2.52,7.69-3.71,12.05-3.71.33,0,.67,0,1,.02,7.71.32,13.54,4.79,16.37,11.88,2.24,5.61,2.1,11.95-.38,17.48-2.7,6.01-9.06,11.32-15.89,11.66.24-1.21.69-2.25,1.18-3.32.19-.4.45-.64.86-.84,2.96-1.41,5.54-3.49,7.34-6.28,3.48-5.36,3.99-12.36.75-17.93-2.44-4.21-6.86-6.23-11.37-6.23-2.93,0-5.9.85-8.4,2.5.6,1.27,1.19,2.22,1.6,3.53l-6.41.03c-.17,0-.36.01-.56.01-.42,0-.87-.04-1.15-.24-1.2-.87-2.28-1.76-3.59-2.46-2.42-1.3-4.98-1.89-7.52-1.89-3.85,0-7.69,1.36-10.99,3.7-2.28,1.61-4.13,3.48-5.97,5.71-.99-.84-1.63-1.72-2.53-2.62-4.06-4.08-9.06-6.75-14.66-6.75-.95,0-1.93.08-2.91.24-3.14.52-5.75,2.06-8.23,3.98-.36.28-.86.35-1.37.35-.57,0-1.15-.09-1.6-.09h-1.74s-.05-.01-.07-.01c-.81,0-1.61.09-2.42.09-.39,0-.79-.02-1.19-.08l1.75-3.61c-2.74-1.48-5.65-2.37-8.56-2.37-2.44,0-4.87.62-7.21,2.02-1.55.93-2.99,2.19-3.94,3.73-.89,1.45-1.55,2.96-1.9,4.62-.79,3.74-.33,7.53,1.15,11.07,1.43,3.42,3.9,6.18,7.02,8.14.8.51,1.82.69,2.49,1.29.73,1.08,1.03,2.38,1.36,3.69-5.21-.08-10.39-3.55-13.41-7.47-1.65-2.14-2.69-4.5-3.51-7.04-1.12-3.46-1.26-7.64-.55-11.21.87-4.35,3.07-8.34,6.54-11.12,3.51-2.81,7.79-4.18,12.09-4.18,3.12,0,6.26.72,9.14,2.13,1.01.49,1.94,1.03,2.99,1.46,3.3-3.53,6.65-6.72,10.41-9.62,1.04-.8,5.01-3.62,6.16-3.62.04,0,.07,0,.1.01.17.03.87,3.06,1.36,3.69.95-.35,1.69-.96,2.55-1.43l4.79-2.67c3.6-2,13.1-6.06,17.29-6.64M149.79,49.07l-3.17.44c-4.66.65-14.54,4.92-18.17,6.94l-4.75,2.65c-.39-1.24-.85-2.25-2.25-2.51-.18-.04-.37-.05-.56-.05-2.09,0-6.08,2.9-7.7,4.15-3.14,2.41-6.17,5.16-9.44,8.55-.09-.05-.18-.1-.28-.14-.34-.18-.68-.35-1.04-.53-3.19-1.57-6.73-2.39-10.25-2.39-5.07,0-9.79,1.64-13.67,4.73-3.77,3.02-6.41,7.49-7.44,12.6-.83,4.15-.6,8.7.62,12.48,1.04,3.2,2.28,5.68,3.91,7.81,2.96,3.84,8.76,8.36,15.37,8.45l3.3.05-.82-3.2-.06-.21c-.34-1.35-.73-2.87-1.66-4.25l-.18-.27-.24-.21c-.71-.63-1.49-.95-2.12-1.21-.29-.12-.56-.23-.71-.33-2.77-1.74-4.85-4.15-6.04-6.98-1.32-3.14-1.66-6.45-1.01-9.57.27-1.26.79-2.51,1.59-3.82.65-1.07,1.72-2.07,3.09-2.88,1.83-1.1,3.82-1.66,5.91-1.66,1.67,0,3.4.35,5.17,1.04l-.63,1.3-1.5,3.09,3.4.51c.48.07,1,.11,1.56.11.47,0,.92-.03,1.35-.05.38-.02.73-.04,1.07-.04h1.79c.11.01.31.03.5.05.33.03.71.06,1.12.06,1.2,0,2.15-.29,2.91-.88,2.68-2.07,4.8-3.12,7.1-3.49.84-.14,1.68-.21,2.51-.21,5.69,0,10.14,3.27,12.86,6,.29.3.57.6.86.92.51.57,1.08,1.21,1.82,1.84l1.95,1.66,1.63-1.97c1.9-2.3,3.59-3.92,5.48-5.26,2.99-2.12,6.29-3.23,9.53-3.23,2.23,0,4.36.54,6.33,1.6.83.44,1.61,1.03,2.43,1.65.28.21.57.42.86.64.88.64,1.87.72,2.64.72h.57l6.41-.03h3.4s-.99-3.26-.99-3.26c-.2-.65-.43-1.21-.67-1.73,1.59-.68,3.33-1.04,5.07-1.04,4,0,7.35,1.81,9.19,4.97,2.65,4.57,2.38,10.57-.69,15.29-1.48,2.28-3.6,4.09-6.31,5.37-.97.46-1.65,1.14-2.08,2.07-.49,1.08-1.05,2.36-1.35,3.87l-.64,3.18,3.24-.16c7.33-.37,14.76-5.78,18.07-13.15,2.75-6.14,2.9-13.23.42-19.45-3.28-8.21-10.06-13.12-18.61-13.47-.37-.02-.74-.03-1.11-.03-4.63,0-8.84,1.18-12.53,3.51-2.4-1.88-4.78-3.6-7.21-5.21-1.07-.71-1.64-1.82-1.62-3.13v-.24c.02-.64.03-1.3,0-2.04l-.11-2.56-2.56.15c-.88.05-1.79.34-2.76.65-.89.28-1.89.6-2.54.61-.21-.84-.26-1.68-.18-2.57l.29-3.1.3-3.18h0l.02-.02Z"/>
    </g>
    <path class="cls-1" d="M151.07,116.71c-3.25-1.49-5.44-3.44-7.51-6.36-1.63-2.3-2.62-4.88-3.55-7.53-.64-1.8-1.25-4.79-2.59-5.97-1.21-1.07-2.91-.98-3.99.25-.73.84-1.12,1.9-1.51,2.97-.75,2.08-1.37,4.13-2.24,6.16-1.73,4-3.92,7.42-7.85,9.59-2.07,1.14-4.28,1.93-6.64,2.33-4.34.73-8.64.78-12.81-.64-3.66-1.25-6.71-3.72-8.53-7.16-1.9-3.59-2.67-9.03-4.08-13.19-1.46-4.33-3.59-3.13-3.71-7.75-.06-2.28,1.15-4.21,3.43-4.8,6.79-1.77,16.82-1.28,23.89-.39,4.45.57,8.62,1.66,12.89,3,5.95,1.86,10.28,2.23,16.35.55l8.69-2.41c5.72-1.59,16.05-2.19,22.07-1.91,2.63.12,5.17.39,7.66,1.1,3.19.9,4.04,3.13,3.77,6.16-.25,2.88-2.56,2.57-3.75,6.98l-2,7.42c-.51,1.86-1.11,3.59-1.99,5.29-1.75,3.35-4.59,5.82-8.18,7.08-5.42,1.9-12.6,1.67-17.82-.74h0ZM122.26,110.24c1.1-1.11,2.03-2.25,2.76-3.59,1.45-2.65,2.43-5.43,2.85-8.42.35-2.52-.23-4.89-2.21-6.54-1.78-1.48-6.82-2.06-9.22-2.34-4.44-.52-8.74-.52-13.19,0-1.73.2-3.36.37-5.04.74-1.71.37-2.73,1.67-2.78,3.43-.2,5.9-.35,14.09,4.59,18.3,1.09.93,2.29,1.72,3.66,2.22,6.57,2.4,13.65,1.17,18.56-3.8h0ZM167.33,113.99c3.6-1.34,6.01-4.3,7.09-7.84.71-2.33,1-4.6,1.12-7.02.1-2.09.17-4.16-.21-6.22-.32-1.7-1.82-2.72-3.44-3.04-2.17-.42-4.27-.62-6.46-.7l-2.6-.1c-1.52-.06-2.96-.12-4.49.01l-4.81.4c-2.22.18-4.34.56-6.41,1.28-2.15.75-3.71,2.39-3.9,4.69-.3,3.58.63,6.97,2.29,10.14,2.14,4.08,5.46,7.41,9.92,8.86,3.87,1.26,8.02.98,11.91-.46h0Z"/>
    <path class="cls-4" d="M143.43,134.55c.79-.24,1.52,0,2.28.03,2.54.07,5.14.26,7.46-.77,4.02-1.79,4.19-6.3,3.23-10.03-.29-1.13-.67-2.18-.9-3.35l5.2.45c.67,1.3.96,2.63,1.08,4.09.67,8.17-3.97,15.25-11.19,18.85-8.91,4.45-19.77,4.24-28.84.36-1.75-.75-3.29-1.65-4.86-2.74-6.82-4.74-9.53-12.6-6.67-20.54l5.16-.5c.24.22.1.66.03.96-.68,2.91-1.7,6.09-.69,9.07.53,1.55,1.57,2.66,3.07,3.3,1.36.58,2.8.9,4.32.82l6.17-.29c-.38.39-.86.52-1.34.68-2.46.81-4.99,1.11-7.72,1.06,1.02,2.15,3.96,3.46,6.12,4.08,6.72,1.91,13.53,1.86,20.27.11,2.21-.58,5.42-1.97,6.47-4.17-3.06,0-5.9-.29-8.67-1.45h0Z"/>
    <path class="cls-4" d="M134.73,117.65c.05.66-3.36-.21-4.77-1.3-.32-.25.35-.59.61-.67,1.88-.63,4.03.28,4.16,1.98h0Z"/>
    <path class="cls-4" d="M142.43,115.83c.89.75-4.57,2.53-4.73,1.65.36-2.18,3.53-2.67,4.73-1.65Z"/>
    <path class="cls-4" d="M116.03,111.85c-2.19,1.05-4.54,1.27-6.87,1.1-1.83-.13-3.43-.92-4.84-2.04-4.9-3.89-7.02-11.82-6.65-17.87-.04-.26.08-.57.34-.62l4.84-.82c-.51,6.12.37,12,4.91,16.34,2.3,2.09,5.04,3.16,8.27,3.91h0Z"/>
    <path class="cls-4" d="M122.66,101.4c-.61,1.72-1.95,2.79-3.63,3.17-2.45.55-4.95-.68-5.96-2.86s-.34-4.98,1.66-6.44,4.97-1.34,6.72.5c1.42,1.5,1.9,3.71,1.21,5.64h0ZM119.85,96.76c-.9.2-1.32.96-1.12,1.79.15.63.87,1.13,1.63.97.71-.15,1.26-.8,1.11-1.61-.13-.64-.8-1.34-1.62-1.16h0Z"/>
    <path class="cls-4" d="M164.89,112.06c-2.53,1.39-7.06.71-9.91-.19,1.88-.65,3.59-1.05,5.22-1.96,4.99-2.79,7.31-7.25,7.78-12.86.16-1.86.03-3.65.07-5.57l5.11.94c.09,1.49.1,2.9.02,4.38-.52,5.98-2.94,12.07-8.28,15.26h0Z"/>
    <path class="cls-4" d="M157.68,97.56c.68,1.8.46,3.67-.67,5.14-1.07,1.39-2.81,2.19-4.72,1.98s-3.37-1.53-4.03-2.99c-.83-1.86-.58-3.81.56-5.39s2.94-2.3,4.85-2.04c1.74.24,3.31,1.46,4.01,3.3ZM154.42,96.77c-.86.25-1.33,1.12-1.05,1.87.25.67.98,1.12,1.73.9s1.29-.92,1.04-1.73c-.2-.64-.9-1.27-1.72-1.04Z"/>
    <path class="cls-5" d="M119.85,96.76c.82-.18,1.49.53,1.62,1.16.16.81-.4,1.46-1.11,1.61-.76.16-1.48-.35-1.63-.97-.2-.83.21-1.59,1.12-1.79h0Z"/>
    <path class="cls-5" d="M154.42,96.77c.81-.23,1.52.4,1.72,1.04.25.81-.31,1.52-1.04,1.73s-1.47-.24-1.73-.9c-.28-.75.18-1.62,1.05-1.87Z"/>
  </g>
  <g>
    <path class="cls-4" d="M160.75,157.8c1.42.51,2.53,1.71,3.88,2.5.55-1.85,2.1-2.83,3.96-2.86,1.9-.03,3.72-.39,5.53-.4l1.6-.02c.62,0,1.23.25,1.76.45,3.21-1.21,6.81-1.05,9.78.72.15.09.15-.21.16-.27.06-1.74-.11-3.4.07-5.13.09-.82.57-1.68,1.14-2.19.89-.81,1.95-.9,3.08-.97l6.84-.43c2.18-.14,4.04,1.26,4.08,3.47l.07,3.94,8.66,1.23c1.02.15,1.86.56,2.61,1.28,4.46-3,10.2-3.12,14.82-.38.6-.4,1.13-.63,1.79-.74l8.04-1.39c.98-.17,1.89.31,2.63.74,1.02-.54,2.03-.94,3.27-.72l7.36,1.34c1.14.21,2,.82,2.49,1.6.69,1.09.66,2.12.29,3.28l-8.28,26.32c-.54,1.71-2.04,2.94-3.9,2.63l-8.51-1.43c-2.02-.34-3.12-2.28-2.65-4.21.22-.9,1.4-3.76,1.14-3.86-.02-.01-4.3,2.96-10.07,2.77-2.74-.09-5.34-.8-7.61-2.17-.35-.21-.8,1.06-2.38,1.22l-7.98.82c-1,.11-2.18-.09-2.91-.73-.56-.5-.79-.26-1.43-.19l-8.37.92c-1.17.13-2.16-.42-3.08-.87-2.74.12-5.52.48-8.3.78-1.21.13-2.2-.38-3.13-.92l-8.86.86c-1.99.19-3.46-1.29-3.76-3.33-4.91,4.53-13.91,4.92-19.15.55-.73,1.44-2,2.03-3.51,2.15l-8.7.75c-.96.08-1.91-.47-2.58-1.04-.32-.27-.32-.7-.72-.94-.63,1.47-1.93,2.33-3.48,2.3-1.41-.03-2.69-.88-3.3-2.38-1.4,2.19-2.63,2.12-4.63,2.02-2.55-.13-5.01-.68-7.56-.66-2.44.02-4.78.49-7.18.72-1.42.13-2.75-.02-3.82-1.19-.88.43-1.75.48-2.69.57l-6.79.61c-1.37.12-2.56-.48-3.44-1.55-5.85,2.83-13.15,2.22-17.97-2.13-6.13,5.08-16.18,5.33-21.99-.38-.42.64-.79.96-1.32,1.3-5.17,3.32-12.39,3.72-18.18,1.76-4.35-1.47-7.44-4.46-9.66-8.41-1.53-2.72-2.08-5.75-1.97-8.89.14-4.09,1.81-7.72,4.53-10.75,3.7-4.12,9.05-6.12,14.61-5.77,3.57.22,6.88,1.44,9.86,3.37,1.75,1.13,2.27,3.37,1.14,5.08l-1.94,2.92c.64.17,1.1.37,1.66.69,4.75-6.22,13.8-7.14,19.79-2.19.7.58,1.28,1.1,1.92,1.97,4.16-5.12,11.12-6.47,16.94-3.75l1.86,1.17c.38-2.13-.38-5.92.54-7.68.63-1.21,1.8-1.84,3.11-1.93l7.62-.54c2.13-.15,4.06,1.29,4.08,3.46l.04,3.99,7.94,1.06.46-4.13c.2-1.75,1.67-3.04,3.46-3.04h9.25c1.38,0,2.57.85,3.02,2.08l.73,2c.34-.51.38-.96.55-1.44.57-1.63,1.95-2.67,3.72-2.66l8.93.06c1.9.02,3.26,1.6,3.4,3.38l.61,7.34c2.34-2.29,5.02-3.84,8.17-4.35,3.04-.48,6.02-.16,8.85.85v-.03ZM110.89,180.6l-5.2-10.92,4.4-8.26-8.02-1.1-3.9,8.84-.08-16.32-8.01.59-.08,4.94v22.95l8.1-.61.09-9.86,4.51,10.66,8.2-.91h0ZM207.97,172.4l-1.28-2.64.9-1.83,3.4-6.52-7.96-1.12-3.9,9-.03-16.39-8.09.53v27.98s8.09-.7,8.09-.7l.04-9.88,4.57,10.69,8.2-.82-3.92-8.29h0ZM35.68,170.94l-.02,2.68c-2.17.37-4.54-.03-6.03-1.73-1.2-1.37-1.59-3.16-1.45-4.97.15-2.58,1.81-4.77,4.31-5.4,2.2-.41,4.35.16,6.19,1.53l4.38-6.43c-2.73-1.97-5.93-2.91-9.31-2.88-3.79-.07-7.27,1.35-9.97,3.92-2.22,2.12-3.61,4.68-4.08,7.74-.96,6.33,2.53,12.45,8.44,14.95,5.12,1.93,10.87,1.57,15.65-1.13l-.03-14.21h-10.86l-1.48,5.88,4.26.06h0ZM133.14,181.35l8.79-.87-1.74-17.84-.8-8.42-8.93.03-4.06,10.61-4.02-10.62h-8.89l-1.33,13.48-1.18,12.84,8.72.79,1.28-13.39,5.46,13.95,2.01-5.19,3.41-8.72,1.28,13.38h0ZM163.08,177.85c3.11-3.8,3.17-9.32.42-13.26-1.99-2.85-5.27-4.26-8.67-4.32-6.44-.12-11.37,4.67-11.13,11.06.15,4.06,2.27,7.63,6.06,9.25,4.38,1.88,10.22,1.05,13.31-2.73h0ZM176.84,167.68c.47-.59,1.19-.73,1.83-.52.58.19.9.77,1.01,1.49l.02,12.54,7.99-.75v-14.25c.03-3.22-1.97-5.47-5.13-5.87-2.71-.34-5.09.77-6.75,3l-.14-2.8-7.5.64.02,19.99,8.11-.88v-10.66c.03-.68.11-1.38.55-1.93h0ZM249.09,169.28l2.43-7.65-7.61-1.42-1.62,8.07c-.17.59-.28,1.14-.66,1.66-.34-.26-.36-.61-.52-.96l-1.92-8.77-7.94,1.38,4.78,12.18,1.91,4.85-1.69,4.87-1.23,3.44,8.04,1.39,4.24-13.45,1.78-5.6h0ZM63.26,173.14c-1.24.86-2.44,1.44-3.82,1.71-1.03.16-2.04.09-3.01-.43l5.36-3.86,4.84-3.5c-1.88-3.86-5.23-6.69-9.61-6.74-2.54-.03-4.94.7-6.82,2.33-2.06,1.77-3.25,4.02-3.62,6.7-.52,3.73.83,7.3,3.81,9.64,2.73,2.14,6.19,2.92,9.64,2.39,2.42-.37,4.71-1.16,6.59-2.71l-3.36-5.51h0ZM84.75,173.16c-1.19.85-2.27,1.36-3.53,1.66-1.11.19-2.24.18-3.36-.4l10.31-7.38c-1.94-3.8-5.19-6.61-9.62-6.72-3.17-.08-6,1.11-8.1,3.54-2.69,3.12-3.34,7.75-1.51,11.51,3.46,7.12,13.23,7.87,19.15,3.31l-3.35-5.51ZM223.95,174.91c-.9-.01-1.85.06-2.56-.57l7.79-5.6c.79-.57,1.48-1.05,2.3-1.7-2.24-4.34-5.5-7-10.54-6.73-5.2.28-9.19,4.42-9.55,9.59-.44,6.36,4.15,11.03,10.26,11.58,3.1.4,7.38-.77,9.81-2.87l-3.32-5.47c-1.33.94-2.67,1.56-4.19,1.78h0Z"/>
    <polygon class="cls-5" points="133.14 181.35 131.86 167.97 128.45 176.69 126.43 181.88 120.97 167.93 119.69 181.33 110.98 180.54 112.15 167.7 113.49 154.22 122.38 154.22 126.4 164.84 130.46 154.24 139.4 154.21 140.19 162.64 141.93 180.48 133.14 181.35"/>
    <path class="cls-3" d="M35.68,170.94l-4.26-.06,1.48-5.87h10.86l.03,14.21c-4.78,2.69-10.52,3.05-15.65,1.13-5.92-2.5-9.41-8.62-8.44-14.95.46-3.06,1.85-5.62,4.08-7.74,2.7-2.58,6.18-3.99,9.97-3.92,3.38-.04,6.58.9,9.31,2.88l-4.38,6.43c-1.84-1.37-3.99-1.94-6.19-1.53-2.5.63-4.16,2.82-4.31,5.4-.13,1.81.25,3.6,1.45,4.97,1.5,1.71,3.86,2.11,6.03,1.73l.02-2.68h0Z"/>
    <polygon class="cls-5" points="207.97 172.4 211.89 180.68 203.69 181.5 199.13 170.81 199.09 180.7 191.01 181.39 191 153.42 199.09 152.89 199.12 169.28 203.02 160.28 210.99 161.4 207.58 167.93 206.69 169.75 207.97 172.4"/>
    <polygon class="cls-3" points="110.89 180.6 102.69 181.51 98.18 170.85 98.09 180.71 89.99 181.32 89.99 158.37 90.06 153.43 98.08 152.84 98.16 169.16 102.06 160.31 110.09 161.41 105.68 169.67 110.89 180.6"/>
    <path class="cls-5" d="M176.84,167.68c-.44.55-.52,1.25-.55,1.93v10.66l-8.11.88-.02-19.99,7.5-.64.14,2.8c1.67-2.23,4.04-3.34,6.75-3,3.16.39,5.16,2.65,5.14,5.87v14.25l-8,.75-.02-12.54c-.11-.72-.44-1.3-1.01-1.49-.64-.21-1.35-.07-1.83.52h0Z"/>
    <path class="cls-5" d="M163.08,177.85c-3.09,3.78-8.92,4.61-13.31,2.73-3.8-1.63-5.91-5.2-6.06-9.25-.24-6.39,4.69-11.18,11.13-11.06,3.39.07,6.67,1.47,8.67,4.32,2.75,3.94,2.69,9.46-.42,13.26h0ZM156.84,173.49c.81-.82,1.06-1.98.95-3.04-.17-1.69-1.36-2.9-3.05-2.98-1.95-.1-3.4,1.34-3.46,3.28-.04,1.41.55,2.73,1.79,3.31,1.21.57,2.73.46,3.76-.58h0Z"/>
    <path class="cls-5" d="M249.09,169.28l-1.78,5.6-4.24,13.45-8.04-1.39,1.23-3.44,1.69-4.87-1.91-4.85-4.78-12.18,7.94-1.38,1.92,8.77c.15.35.17.7.52.96.38-.53.49-1.07.66-1.66l1.62-8.07,7.61,1.42-2.43,7.65h0Z"/>
    <path class="cls-3" d="M84.75,173.16l3.35,5.51c-5.91,4.56-15.68,3.81-19.15-3.31-1.83-3.76-1.18-8.4,1.51-11.51,2.1-2.43,4.93-3.61,8.1-3.54,4.43.11,7.68,2.92,9.62,6.72l-10.31,7.38c1.12.59,2.24.6,3.36.4,1.26-.3,2.34-.8,3.53-1.66ZM75.18,171.34l5.36-3.95c-.8-.86-2.02-1.21-3.21-.93-2.11.5-2.74,2.81-2.16,4.88h0Z"/>
    <path class="cls-5" d="M223.95,174.91c1.52-.23,2.86-.84,4.19-1.78l3.32,5.47c-2.43,2.11-6.72,3.27-9.81,2.87-6.11-.55-10.7-5.22-10.26-11.58.36-5.17,4.35-9.31,9.55-9.59,5.04-.27,8.31,2.39,10.54,6.73-.81.66-1.51,1.14-2.3,1.7l-7.79,5.6c.71.63,1.66.56,2.56.57h0ZM218.58,171.26l5.33-3.82c-.78-.91-2-1.28-3.16-.97-2.17.58-2.78,2.63-2.17,4.8h0Z"/>
    <path class="cls-3" d="M63.26,173.14l3.36,5.51c-1.88,1.55-4.17,2.34-6.59,2.71-3.44.53-6.91-.25-9.64-2.39-2.98-2.34-4.33-5.91-3.81-9.64.37-2.68,1.57-4.92,3.62-6.7,1.88-1.63,4.28-2.36,6.82-2.33,4.38.05,7.73,2.88,9.61,6.74l-4.84,3.5-5.36,3.86c.97.53,1.98.59,3.01.43,1.38-.27,2.58-.85,3.82-1.71h0ZM53.76,171.24l5.33-3.89c-.86-.83-2-1.14-3.17-.89-2.1.46-2.74,2.76-2.17,4.78h0Z"/>
    <path class="cls-4" d="M156.84,173.49c-1.04,1.05-2.55,1.15-3.76.58-1.24-.58-1.83-1.9-1.79-3.31.06-1.94,1.5-3.38,3.46-3.28,1.69.08,2.88,1.28,3.05,2.98.11,1.06-.14,2.22-.95,3.04h0Z"/>
    <path class="cls-4" d="M75.18,171.34c-.59-2.07.05-4.38,2.16-4.88,1.19-.28,2.41.07,3.21.93l-5.36,3.95h0Z"/>
    <path class="cls-4" d="M218.58,171.26c-.61-2.16,0-4.22,2.17-4.8,1.16-.31,2.38.06,3.16.97l-5.33,3.82h0Z"/>
    <path class="cls-4" d="M53.76,171.24c-.57-2.02.08-4.33,2.17-4.78,1.16-.25,2.3.06,3.17.89l-5.33,3.89h0Z"/>
  </g>
</svg>